<svg width="52" height="52" viewBox="0 0 52 52" fill="none" xmlns="http://www.w3.org/2000/svg">
<path d="M17.4282 11.1084H13.2152C12.0979 11.1084 11.0263 11.5523 10.2362 12.3424C9.44607 13.1325 9.0022 14.2041 9.0022 15.3214V40.5996C9.0022 41.7169 9.44607 42.7885 10.2362 43.5786C11.0263 44.3687 12.0979 44.8126 13.2152 44.8126H25.216M38.4934 30.067V38.4931H46.9194M38.4934 23.7475V15.3214C38.4934 14.2041 38.0495 13.1325 37.2594 12.3424C36.4693 11.5523 35.3977 11.1084 34.2803 11.1084H30.0673" stroke="#9E0000" stroke-width="3.44702" stroke-linecap="round" stroke-linejoin="round"/>
<path d="M17.428 23.7476H25.854M17.428 32.1737H23.7475M17.428 11.1085C17.428 9.99117 17.8719 8.91957 18.6619 8.12947C19.452 7.33938 20.5236 6.89551 21.641 6.89551H25.854C26.9714 6.89551 28.043 7.33938 28.8331 8.12947C29.6232 8.91957 30.067 9.99117 30.067 11.1085C30.067 12.2259 29.6232 13.2975 28.8331 14.0876C28.043 14.8777 26.9714 15.3216 25.854 15.3216H21.641C20.5236 15.3216 19.452 14.8777 18.6619 14.0876C17.8719 13.2975 17.428 12.2259 17.428 11.1085ZM30.067 38.4932C30.067 40.7279 30.9548 42.8711 32.535 44.4513C34.1152 46.0315 36.2584 46.9192 38.4931 46.9192C40.7278 46.9192 42.871 46.0315 44.4512 44.4513C46.0314 42.8711 46.9191 40.7279 46.9191 38.4932C46.9191 36.2585 46.0314 34.1153 44.4512 32.5351C42.871 30.9549 40.7278 30.0671 38.4931 30.0671C36.2584 30.0671 34.1152 30.9549 32.535 32.5351C30.9548 34.1153 30.067 36.2585 30.067 38.4932Z" stroke="#9E0000" stroke-width="3.44702" stroke-linecap="round" stroke-linejoin="round"/>
</svg>
