<svg width="33" height="33" viewBox="0 0 33 33" fill="none" xmlns="http://www.w3.org/2000/svg">
<g clip-path="url(#clip0_1_536)">
<path d="M16.5 0.919922C25.3457 0.919922 32.5 8.05632 32.5 16.8799C32.5 25.7035 25.3457 32.8399 16.5 32.8399C7.65429 32.8399 0.5 25.7035 0.5 16.8799C0.5 8.05632 7.65429 0.919922 16.5 0.919922ZM13.5743 25.2931C20.66 25.2931 24.5457 19.4335 24.5457 14.3491V13.8475C25.3 13.3003 25.9629 12.6163 26.4657 11.8411C25.78 12.1375 25.0257 12.3427 24.2486 12.4567C25.0486 11.9779 25.6657 11.2255 25.94 10.3363C25.1857 10.7695 24.3629 11.0887 23.4943 11.2711C22.7857 10.5187 21.78 10.0627 20.6829 10.0627C18.5571 10.0627 16.82 11.7955 16.82 13.9159C16.82 14.2123 16.8429 14.5087 16.9343 14.7823C13.7343 14.6227 10.8771 13.0951 8.98 10.7695C8.66 11.3395 8.45429 12.0007 8.45429 12.7075C8.45429 14.0299 9.14 15.2155 10.1686 15.8995C9.52857 15.8995 8.93429 15.7171 8.43143 15.4207V15.4663C8.43143 17.3359 9.75714 18.8863 11.5171 19.2511C11.1971 19.3423 10.8543 19.3879 10.5114 19.3879C10.26 19.3879 10.0314 19.3651 9.78 19.3195C10.26 20.8471 11.7 21.9643 13.3686 21.9871C12.0429 23.0131 10.3743 23.6287 8.56857 23.6287C8.24857 23.6287 7.95143 23.6287 7.65429 23.5831C9.34571 24.6775 11.38 25.3159 13.5514 25.3159" fill="white"/>
</g>
<defs>
<clipPath id="clip0_1_536">
<rect width="32" height="31.92" fill="white" transform="translate(0.5 0.919922)"/>
</clipPath>
</defs>
</svg>
