<svg width="33" height="32" viewBox="0 0 33 32" fill="none" xmlns="http://www.w3.org/2000/svg">
<path d="M17.8708 2.6665C19.3708 2.6705 20.1321 2.6785 20.7895 2.69717L21.0481 2.7065C21.3468 2.71717 21.6415 2.7305 21.9975 2.7465C23.4161 2.81317 24.3841 3.03717 25.2335 3.3665C26.1135 3.70517 26.8548 4.16384 27.5961 4.90384C28.2741 5.57036 28.7987 6.37662 29.1335 7.2665C29.4628 8.11584 29.6868 9.08383 29.7535 10.5038C29.7695 10.8585 29.7828 11.1532 29.7935 11.4532L29.8015 11.7118C29.8215 12.3678 29.8295 13.1292 29.8321 14.6292L29.8335 15.6238V17.3705C29.8367 18.343 29.8265 19.3156 29.8028 20.2878L29.7948 20.5465C29.7841 20.8465 29.7708 21.1412 29.7548 21.4958C29.6881 22.9158 29.4615 23.8825 29.1335 24.7332C28.7997 25.6235 28.275 26.43 27.5961 27.0958C26.9294 27.7736 26.1232 28.2982 25.2335 28.6332C24.3841 28.9625 23.4161 29.1865 21.9975 29.2532C21.6811 29.2681 21.3646 29.2814 21.0481 29.2932L20.7895 29.3012C20.1321 29.3198 19.3708 29.3292 17.8708 29.3318L16.8761 29.3332H15.1308C14.1578 29.3365 13.1848 29.3263 12.2121 29.3025L11.9535 29.2945C11.6369 29.2825 11.3205 29.2687 11.0041 29.2532C9.58545 29.1865 8.61745 28.9625 7.76679 28.6332C6.87701 28.299 6.07108 27.7743 5.40545 27.0958C4.72685 26.4295 4.20175 25.6232 3.86679 24.7332C3.53745 23.8838 3.31345 22.9158 3.24678 21.4958C3.23193 21.1795 3.2186 20.863 3.20678 20.5465L3.20012 20.2878C3.17555 19.3156 3.16444 18.3431 3.16678 17.3705V14.6292C3.16306 13.6566 3.17284 12.6841 3.19612 11.7118L3.20545 11.4532C3.21612 11.1532 3.22945 10.8585 3.24545 10.5038C3.31212 9.08383 3.53612 8.11717 3.86545 7.2665C4.20027 6.37571 4.72641 5.5692 5.40679 4.90384C6.07224 4.2258 6.87764 3.70115 7.76679 3.3665C8.61745 3.03717 9.58412 2.81317 11.0041 2.7465C11.3588 2.7305 11.6548 2.71717 11.9535 2.7065L12.2121 2.6985C13.1844 2.67481 14.1569 2.66459 15.1295 2.66784L17.8708 2.6665ZM16.5001 9.33317C14.732 9.33317 13.0363 10.0355 11.7861 11.2858C10.5358 12.536 9.83345 14.2317 9.83345 15.9998C9.83345 17.7679 10.5358 19.4636 11.7861 20.7139C13.0363 21.9641 14.732 22.6665 16.5001 22.6665C18.2682 22.6665 19.9639 21.9641 21.2142 20.7139C22.4644 19.4636 23.1668 17.7679 23.1668 15.9998C23.1668 14.2317 22.4644 12.536 21.2142 11.2858C19.9639 10.0355 18.2682 9.33317 16.5001 9.33317ZM16.5001 11.9998C17.0254 11.9997 17.5456 12.1031 18.0309 12.3041C18.5162 12.505 18.9573 12.7996 19.3287 13.1709C19.7002 13.5423 19.995 13.9832 20.1961 14.4685C20.3972 14.9538 20.5007 15.4739 20.5008 15.9992C20.5009 16.5245 20.3975 17.0446 20.1966 17.53C19.9956 18.0153 19.7011 18.4563 19.3297 18.8278C18.9583 19.1993 18.5174 19.494 18.0321 19.6951C17.5469 19.8962 17.0267 19.9997 16.5015 19.9998C15.4406 19.9998 14.4232 19.5784 13.673 18.8283C12.9229 18.0781 12.5015 17.0607 12.5015 15.9998C12.5015 14.939 12.9229 13.9216 13.673 13.1714C14.4232 12.4213 15.4406 11.9998 16.5015 11.9998M23.5015 7.33317C23.0594 7.33317 22.6355 7.50876 22.3229 7.82132C22.0104 8.13388 21.8348 8.55781 21.8348 8.99984C21.8348 9.44186 22.0104 9.86579 22.3229 10.1783C22.6355 10.4909 23.0594 10.6665 23.5015 10.6665C23.9435 10.6665 24.3674 10.4909 24.68 10.1783C24.9925 9.86579 25.1681 9.44186 25.1681 8.99984C25.1681 8.55781 24.9925 8.13388 24.68 7.82132C24.3674 7.50876 23.9435 7.33317 23.5015 7.33317Z" fill="white"/>
</svg>
