<svg width="37" height="37" viewBox="0 0 37 37" fill="none" xmlns="http://www.w3.org/2000/svg">
<path d="M32.8895 11.6444C32.7187 11.0105 32.3848 10.4324 31.9211 9.96761C31.4574 9.50285 30.88 9.16765 30.2465 8.99536C27.8975 8.35035 18.5 8.33986 18.5 8.33986C18.5 8.33986 9.10401 8.32935 6.75351 8.94586C6.12039 9.12607 5.54424 9.46602 5.08036 9.93306C4.61647 10.4001 4.28043 10.9785 4.10451 11.6129C3.48501 13.9619 3.47901 18.8339 3.47901 18.8339C3.47901 18.8339 3.47301 23.7299 4.08801 26.0549C4.43301 27.3404 5.44551 28.3559 6.73251 28.7024C9.10551 29.3474 18.4775 29.3579 18.4775 29.3579C18.4775 29.3579 27.875 29.3684 30.224 28.7534C30.8578 28.5814 31.4356 28.2469 31.9005 27.7831C32.3653 27.3193 32.7011 26.7422 32.8745 26.1089C33.4955 23.7614 33.5 18.8909 33.5 18.8909C33.5 18.8909 33.53 13.9934 32.8895 11.6444ZM15.494 23.3474L15.5015 14.3474L23.312 18.8549L15.494 23.3474Z" fill="white"/>
</svg>
